# File created by Blade
# Date/Time:  Thu Jan 22 16:16:06 2015
# Frame Rate: 120.000 fps
#------------------------------------------------------
:FULLY-SPECIFIED
:DEGREES
772
root 1.749084 34.613594 -6.789566 55.935879 -2.097822 4.951990
RightUpLeg -59.309159 -25.519418 -10.511630
RightLeg -5.047139 -0.000000 0.000000
RightFoot 0.513411 -25.969116 33.396042
RightToeBase 14.570090 -0.000000 -0.000000
LeftUpLeg -61.568462 15.922717 5.942960
LeftLeg -0.852010 -0.000000 0.000000
LeftFoot 2.969573 16.118918 -35.784572
LeftToeBase 11.237077 -0.000000 -0.000000
Spine 80.738716 -6.262623 -9.088667
RightShoulder 12.464177 20.064537 -46.851947
RightArm 54.993639 30.865148 30.610049
RightForeArm -23.903902 -0.000000 26.089449
RightHand 13.251218 -0.000000 -26.823528
RightHandThumb1 -24.326973 -0.000000 -32.862282
LeftShoulder 8.453168 9.591567 48.660738
LeftArm 68.276284 -50.720341 -38.015081
LeftForeArm 63.059931 -0.000000 20.645510
LeftHand -24.262832 -0.000000 34.146486
LeftHandThumb1 -26.253704 0.000000 33.147579
Head -16.818351 10.579044 -10.554991
773
root 1.743311 34.612143 -6.793670 56.219635 -2.167858 4.934105
RightUpLeg -59.630365 -25.526679 -10.388590
RightLeg -5.090365 -0.000000 0.000000
RightFoot 0.556367 -25.956403 33.382666
RightToeBase 14.564032 -0.000000 -0.000000
LeftUpLeg -61.875533 15.994365 5.871685
LeftLeg -0.774751 -0.000000 0.000000
LeftFoot 2.907651 16.110907 -35.834427
LeftToeBase 11.274939 -0.000000 -0.000000
Spine 80.802689 -6.222308 -9.077749
RightShoulder 12.372130 19.963348 -46.966121
RightArm 54.748004 31.251318 30.250955
RightForeArm -24.013224 -0.000000 25.926227
RightHand 13.468618 -0.000000 -26.758571
RightHandThumb1 -24.326973 -0.000000 -32.862282
LeftShoulder 8.394588 9.483258 48.729586
LeftArm 67.998311 -51.059907 -37.886831
LeftForeArm 62.981020 0.000000 20.696108
LeftHand -24.357896 0.000000 34.000678
LeftHandThumb1 -26.253704 0.000000 33.147579
Head -17.003946 10.511470 -10.542409
774
root 1.738036 34.610707 -6.795888 56.498914 -2.228729 4.920743
RightUpLeg -59.948490 -25.547585 -10.258631
RightLeg -5.120788 -0.000000 0.000000
RightFoot 0.563776 -25.915307 33.414820
RightToeBase 14.556259 -0.000000 -0.000000
LeftUpLeg -62.162406 16.046197 5.820549
LeftLeg -0.720172 -0.000000 0.000000
LeftFoot 2.842393 16.128967 -35.884906
LeftToeBase 11.253635 -0.000000 -0.000000
Spine 80.861231 -6.175023 -8.996632
RightShoulder 12.261028 19.787339 -47.064852
RightArm 54.566935 31.697670 29.983904
RightForeArm -24.278798 0.000000 25.705415
RightHand 13.967249 0.000000 -27.142095
RightHandThumb1 -24.326973 -0.000000 -32.862282
LeftShoulder 8.355386 9.280863 48.823603
LeftArm 67.806998 -51.346201 -37.868692
LeftForeArm 62.894354 -0.000000 20.680318
LeftHand -24.093424 -0.000000 33.906555
LeftHandThumb1 -26.253704 0.000000 33.147579
Head -17.178142 10.422689 -10.494023
775
root 1.734110 34.609967 -6.797099 56.766481 -2.286145 4.916565
RightUpLeg -60.266465 -25.586558 -10.116429
RightLeg -5.139999 -0.000000 0.000000
RightFoot 0.611564 -25.870466 33.272134
RightToeBase 14.757116 -0.000000 -0.000000
LeftUpLeg -62.411885 16.076225 5.797800
LeftLeg -0.686394 -0.000000 0.000000
LeftFoot 2.792228 16.139822 -35.921354
LeftToeBase 11.224632 -0.000000 -0.000000
Spine 80.939175 -6.153374 -8.976448
RightShoulder 12.158173 19.739994 -47.186654
RightArm 54.328236 32.023170 29.701623
RightForeArm -24.145377 -0.000000 25.497714
RightHand 14.657261 -0.000000 -27.623830
RightHandThumb1 -24.326973 -0.000000 -32.862282
LeftShoulder 8.270333 9.209364 48.867689
LeftArm 67.626039 -51.685718 -37.695846
LeftForeArm 62.791660 -0.000000 20.571749
LeftHand -24.066991 0.000000 33.509408
LeftHandThumb1 -26.253704 0.000000 33.147579
Head -17.378542 10.410719 -10.444391
